# xmcd
#
# Track frame offsets: 
#        150
#        14774
#        55116
#        80229
#        129430
#        134126
#        163977
#        193655
#        257924
#
# Disc length: 3963 seconds
#
# Revision: 0
# Processed by: cddbd v1.5.2PL0 Copyright (c) Steve Scherf et al.
# Submitted via: ExactAudioCopy v0.99pb4
#
DISCID=8b0f7909
DTITLE=Derek Trucks Band - Wanee Festival 2006 - cd1
DYEAR=2006
DGENRE=Blues
TTITLE0=Cheverolet
TTITLE1=Volunteered slavery
TTITLE2=I'll find my way
TTITLE3=Crow Jane
TTITLE4=Sahib teri bandi
TTITLE5=I wish I knew
TTITLE6=Maybe your baby
TTITLE7=Mahjoun
TTITLE8=Greensleeves
EXTD=
EXTT0=
EXTT1=
EXTT2=
EXTT3=
EXTT4=
EXTT5=
EXTT6=
EXTT7=
EXTT8=
PLAYORDER=
